<?xml version="1.0" encoding="UTF-8"?>
<svg id="Layer_1" xmlns="http://www.w3.org/2000/svg" version="1.1" viewBox="0 0 231.9432 30">
  <!-- Generator: Adobe Illustrator 30.1.0, SVG Export Plug-In . SVG Version: 2.1.1 Build 136)  -->
  <path d="M60.0801,28.8002c-15.1468.8185-42.3593.0135-57.3453-.0097.0096-.2495.0234-.5032.0426-.7514,15.5891-.1043,41.7727-.0426,57.2641,0-.0261-.3964-.059-.7871-.1002-1.1792-19.2196.754-38.4253-.1688-57.0431-.1166.0549-.4772.1209-.9557.2019-1.4261,3.5755,1.134,7.7224.1426,7.7224.1426,0,0,4.0535,1.411,7.3776,0,0,0,1.9794,1.1243,3.8158-.4938,0,0,10.1263,4.1152,14.287-2.5285.0713-.111.2404-.0589.2376.074-.0427.9654.059,2.8509,1.4779,3.0881.1073.0166.1855-.0974.1306-.1921-.2995-.5073-.8174-2.002.3641-5.3765.0493-.1357.254-.1001.2471.0452-.081,2.0047.1827,6.5984,4.4507,5.5246,0,0,4.3406,1.7293,10.8417-.0877,0,0,1.2596.9557,4.9492.5979h.0028c.2747-.0314.5494-.063.824-.0946-.033-.2467-.0713-.4936-.1071-.7405-.0028-.0232-.0069-.0452-.0097-.0712-.0138-.0714-.0233-.1426-.033-.2153-1.3282-7.8847-5.7306-14.7271-11.9422-19.2481-.1564.3963-.3227.7775-.4944,1.1436,6.0425,4.2453,10.3432,10.7903,11.6302,18.3608-2.2045.5265-3.9944-.4224-4.2813-.5854-.0263-.0138-.0549-.0138-.0812,0-2.1688,1.2149-3.78-.0385-4.0892-.3058-.033-.026-.0782-.026-.1112,0-2.25,1.8814-6.7858,1.3848-7.7815-1.9597-.0386-.1301-.2281-.1166-.2473.0194-.0948.5622-.1566,1.4685.1924,2.2816.0424.1043-.0495.2084-.1566.1755-4.5838-1.4945-1.1621-8.6003-.7982-9.1954.3641-.5951,1.426-3.679,2.272-5.2559.3805-.7089,3.4999-4.7253,3.7212-8.8637.0233-.4361.0289-1.0956-.3874-1.3808-.3613-.2468-.8792-.1522-1.0384-.1234-.5468.1111-.6252.3839-1.1457.5458-.5371.1659-.8008-.0165-1.3118-.0069-.5054.0096-.9904.3579-1.9671.9462-.3227.1947-.5851.3634-.7622.4813-.7308-.2825-1.7666-.6513-3.0329-.9914,0,0-3.8188-1.0271-7.8145-1.0271C13.4531,0,0,13.4299,0,30h60.1062c0-.4004-.0097-.7996-.0261-1.1957v-.0069.0028ZM27.0435,20.8688c-.3227,1.2575-.5041,2.438-.6056,3.5036-.4397-.0454-.8531-.1015-1.2336-.1688.1043-.6882.254-1.4781.4587-2.3364.0853-.3443.3283-1.3302.7198-2.4738,0,0,1.426-4.1631,4.0275-7.5446.0289-.0384.0618-.0809.0948-.1206.2637.1563.511.3085.7527.458-.033.0425-.0618.085-.0948.1262-.1374.1851-.2762.3867-.4134.5951-1.2568,1.7648-2.8106,4.4373-3.702,7.9559l-.0026.0028-.0015.0027ZM29.5242,11.3045c-.7816.942-2.3709,3.0126-3.7994,5.98-.7719,1.6057-1.6537,3.797-2.2733,6.5134-.6538-.1921-1.0287-.351-1.0287-.351,0,0,1.276-6.316,6.3514-12.6305.2831.133.5537.2701.8105.4059-.0233.0261-.0427.0521-.0687.0809h.0069l.0013.0014ZM28.251,24.4546c.0452-.7611.1428-1.6839.3352-2.7137.6963-3.7544,2.1785-6.3516,2.9174-7.6213.2445-.4196.4849-.8036.7129-1.1436.0235-.0329.0455-.0645.0646-.0974.221.1522.4369.3017.6416.4457-.0138.0192-.0263.0384-.0386.0617-.8792,1.3753-2.331,4.1411-2.9038,8.067-.1071.7377-.2116,1.7457-.2279,2.9249-.5179.052-1.0164.0809-1.4973.0849l-.0028-.0069-.0013-.0013ZM34.3952,14.8752c-1.8228,4.0918-1.1429,8.717-1.1429,8.717-.4231.1467-.8393.2727-1.2543.377-.1758-2.3818.0687-4.3098.3229-5.6097.5082-2.5903,1.309-4.0136,1.5205-4.3811,0,0,.0097-.0165.0138-.026.9835.6335,1.8008,1.001,2.728.8186-.882.7994-2.191.1042-2.191.1042h.0028ZM41.0887,11.0631c-.0687.0946-.2775.3894-.6745.4937-.5371.1522-1.0619-.1303-1.055-.1687,0-.0165.0879,0,.235-.0096.1209-.0028.3544-.0261.6222-.1303-.033-.0123-.0646-.0261-.0948-.0494-.2144-.1467-.2665-.4415-.1209-.6568.1469-.2139.4423-.2701.6579-.1234.14.0974.2116.2537.2047.4127.0549-.0549.1114-.1207.1594-.192.2047-.2921.2376-.5265.2665-.5197.048.0096.0905.517-.1993.942h-.0028l.0015.0014ZM43.8758,1.0586c.0823.0123.0713.0151.1523.0274.125.0178.3132.0357.5371.0151.1306-.0123.2706-.0384.4328-.0946.5563-.1755.8296-.5389,1.3419-.4676.1004.0123.2637.0357.3874.1522.349.325.1071,1.0984-.0399,1.5824-.5466,1.7936-1.1235,3.3966-2.7705,5.0612-.3229.3277-.8146.942-1.6043,1.2931-.7747.3442-1.5139.2345-2.5686.8186-1.599.8899-1.5371,2.2104-2.9629,2.2104-.2995,0-.6224-.0782-.9671-.218.6416-.6404,1.7198-1.6345,3.1977-2.6561.2926-.2043.8915-.5622,2.0839-1.2876,1.2073-.7377,1.8887-1.1642,2.6826-1.8813.221-.2043.651-.6047,1.0838-1.2122.302-.4264.6799-1.0504.6125-1.1052-.0948-.0713-.7622,1.06-2.1841,2.1227-.7267.543-1.5535.9845-2.6895,1.6222-.4944.2756-.9025.4978-1.647.9297-.4106.2372-.8652.5032-1.2431.7446-.592.3771-1.4189.9585-2.3599,1.8265,0,0-.254.2276-.4423.4155-.2279-.1467-.463-.3127-.6963-.4937.7032-.6993,1.3542-1.2122,1.8364-1.5605.0358-.0261.059-.0453.0715-.0549,1.5205-1.1765,2.8982-1.9993,3.9037-2.5423,1.5537-.8392,2.272-1.2931,2.8106-1.7168.3927-.3099.6812-.5841.7939-.6925.695-.6623,1.1922-1.2999,1.5274-1.7812.059-.0905.3158-.5005.2762-.5458-.0386-.0329-.2611.1783-.5015.4415-.4009.436-.9932,1.0298-1.7842,1.6606-.3682.2893-.651.4909-.8077.5979-1.5302,1.0531-3.3832,1.9143-3.6208,2.0281-2.5563,1.1902-4.4959,2.7822-5.298,3.4966-.1952-.1728-.3874-.3579-.5825-.543,1.4684-1.2615,3.3627-2.4216,3.3627-2.4216.276-.1659.5384-.3209.7857-.4621.7142-.41,1.2678-.698,1.5164-.8282,1.5356-.7994,3.9162-2.0171,4.835-3.1922.0646-.0823.3186-.4073.2775-.4484-.0412-.0398-.3337.2125-.6153.4292-.4658.3579-.9505.6925-1.4451,1.0147,0,0-.1017.0644-.195.1234-.3613.2276-.9382.5334-2.842,1.4658,0,0-1.0029.4511-2.1621,1.0504-1.8103.9297-3.2294,1.9376-4.1318,2.6492-.2019-.2139-.4037-.4319-.5989-.65,1.8174-1.4782,3.7087-2.3983,5.5151-3.3828,1.0836-.5883,1.9437-1.0559,2.6468-1.4467l1.0839-.6171h.0028c.276-.1618.4931-.2989.6291-.3894,1.0576-.6897,1.4628-1.1463,2.1182-1.123.1153.0041.2072.0219.2581.0329l-.0026.0027ZM30.9926,1.7607c2.8681,0,5.636.4265,8.2445,1.219-1.2665.7021-2.5206,1.3356-3.327,1.7415-1.3419.6829-2.8681,1.3973-4.7471,2.763,0,0-.5371-.6171-1.1661-.8803-.4561-.1728-.6579-.0877-1.1265-.3154-.5563-.2729-.4944-.5032-.938-.7089-.6388-.2921-.8984.1303-1.8008-.0521-.7652-.1563-.7941-.5005-1.3833-.4717-.5179.026-.5769.2962-1.2183.3579-.033,0-.0618.0027-.0907.0069-.5013.026-.5797-.1591-1.0412-.0754-.5276.0974-.5371.3606-1.1594.5457-.5659.1687-.6126-.0329-1.1429.1303-.6744.2043-.5536.5074-1.2953.7638-.4107.1426-.6648.1988-.7843.4552-.0852.1728-.0714.3894.0192.5334.0783.1207.1992.1824.2898.2139.4725.1687,2.7252.5499,5.1181,1.0956,1.8433.3771,3.4121.8351,4.7047,1.3946-.6607.7377-1.2734,1.5371-1.8435,2.3558-.1497-.0452-.2898-.107-.5797-.133-.7816-.0713-1.0164.1851-1.7513.1042-.5041-.0548-.4918-.1851-.9078-.1783-.5015.0069-.5565.1947-1.1403.2866-.6771.107-.7554-.1234-1.2856.0192-.4629.1234-.4134.3058-1.0027.5293-.592.2276-.6896.0617-1.1167.2921-.4423.24-.3874.4457-.8406.6376-.3613.1495-.478.059-.7884.24-.2473.1467-.2115.2304-.5563.5334-.3352.2962-.4821.3277-.6442.4621-.0591.0521-.1071.1015-.1332.133-.1896.218-.2541.591-.1992.7309.1374.351,1.4038.0974,2.8818-.0877.2871-.0357,2.7747-.3387,5.5837-.2509.1855.0068.4369.0233.4369.0233v.0068c-1.8818,3.4843-2.8915,6.5558-2.8915,6.5558-.511,1.2876-1.4849,1.5304-1.9313,1.5702-.1017.0097-.169-.0974-.1236-.1893.4423-.8323.489-2.0775.4725-2.7493,0-.133-.1786-.1728-.2404-.059-2.8159,5.0927-7.0782,3.1169-7.5081,2.8988-.0234-.0125-.0495-.0125-.0714,0-.3709.1658-5.0013,1.2409-8.6839.0686C5.9381,11.4279,17.3335,1.7607,30.9926,1.7607Z" fill="#1d58a4"/>
  <path d="M212.0715,5.1384c-1.4305-.0215-5.2437-.0108-10.4895,0v.5248c1.0729.3054,1.2366,1.4065,1.2366,3.9464v12.1682c0,2.5377-.1637,3.6389-1.2366,3.9464v.5291h6.8788v-.5291c-1.0729-.3054-1.2366-1.4065-1.2366-3.9464v-3.9506c1.4391.0108,2.8804.0151,4.3152.0258.1185,0,.2973.0107.4955.0666.3835.1118.6291.3312.7454.4387.1012.0925.2305.2344.3533.4387h.5063v-5.6992h-.5063c-.056.1484-.153.3376-.3382.5097-.2865.2796-.6075.357-.7454.3935-.209.0516-.3878.0516-.5106.0452-1.4348.0108-2.8696.0107-4.3152.015v-4.4497c0-.2796,0-.5398.0108-.7893h4.927c1.144,0,1.7623.2602,1.9411.8774l.0926.3527h.53l1.256-5.0561c-.0259,0-.0711.0107-.1271.0107-1.8592.1677-3.2725.142-3.7744.1334v.0108h-.0043l-.0043-.0043v-.0086Z" fill="#1d58a4" fill-rule="evenodd"/>
  <path d="M193.2383,5.1384v.5248c1.0729.3054,1.2366,1.4065,1.2366,3.9464v12.1684c0,2.5377-.1637,3.6389-1.2366,3.9464v.5291h6.8788v-.5291c-1.0729-.3054-1.2366-1.4065-1.2366-3.9464v-12.1684c0-2.5377.1637-3.6389,1.2366-3.9464v-.5248h-6.8788Z" fill="#1d58a4" fill-rule="evenodd"/>
  <path d="M231.4456,21.0575c-1.3228,1.0452-3.4362,1.6624-5.5561,1.6624-1.8333,0-2.8179-.2387-3.0936-.3204v-4.5679c1.4391.0108,2.8739.0151,4.3152.0258.1163,0,.2908.0108.4955.0667.3878.1075.6291.3312.7411.4387.1012.0925.2305.2344.3576.4387h.5106v-5.7099h-.5106c-.056.1484-.1637.3355-.3382.5097-.2865.2796-.6075.357-.7497.3936-.209.0516-.3878.0516-.5106.0452-1.4348,0-2.8696.0108-4.3044.0151,0,0,.0043-4.9895.0108-5.2346h4.927c1.144,0,1.7623.2602,1.9346.8775l.0862.3463h.5257l1.2603-5.0626s-.0452,0-.1336.0108c-1.256.1075-2.512.1527-3.7744.1333h-10.4895v.5248c1.0729.3054,1.2366,1.4022,1.2366,3.9464v12.1683c0,2.5377-.1573,3.6453-1.2366,3.9464v.5291h13.5013l1.2926-5.1852h-.4998v.0043h.0022v-.0022Z" fill="#1d58a4" fill-rule="evenodd"/>
  <path d="M191.825,21.0639c-1.3228,1.0495-3.6667,1.6625-5.7866,1.6625-1.9001,0-2.8847-.2602-3.1195-.3312v-12.7791c0-2.5377.1637-3.6389,1.2366-3.9464v-.5248h-6.8788v.5248c1.0729.3054,1.2366,1.4065,1.2366,3.9464v12.1683c0,2.5377-.1637,3.6389-1.2366,3.9464v.5291h13.7577l1.2926-5.1895h-.4998v-.0043h-.0022v-.0022Z" fill="#1d58a4" fill-rule="evenodd"/>
  <path d="M79.1765,5.3772c-.9436-.2387-1.7666-.2602-2.3396-.2301l-8.1133-.0108v.5291c1.0729.3054,1.2366,1.4065,1.2366,3.9464v12.1683c0,2.5377-.1637,3.6389-1.2366,3.9464v.5291h6.7862v-.5291c-1.0729-.3054-1.2366-1.4065-1.2366-3.9464v-3.426l.2047.0817c3.2574,1.213,6.7043.5506,8.6001-1.6001,1.5834-1.7936,1.6588-4.1399,1.6653-4.4647.0366-1.9872-.7756-3.4045-.9953-3.7679-1.4563-2.3915-3.9015-3.0539-4.5758-3.2259h.0043ZM79.2282,15.8034c-.9048.8559-2.3224,1.4474-4.0179,1.4065l-.9242-.0667v-8.3703h1.0729c2.6455-.0667,4.2699.8818,4.8925,2.3292v.0108c.6377,1.5097.3275,3.4152-1.0212,4.6905h-.0022Z" fill="#1d58a4" fill-rule="evenodd"/>
  <path d="M139.2741,5.1384c-1.4305-.0215-5.2437-.0108-10.4895,0v.5248c1.0729.3054,1.2366,1.4065,1.2366,3.9464v12.1682c0,2.5377-.1637,3.6389-1.2366,3.9464v.5291h6.8788v-.5291c-1.0729-.3054-1.2366-1.4065-1.2366-3.9464v-3.9506c1.4391.0108,2.8804.0151,4.3151.0258.1163,0,.2908.0107.4955.0666.3835.1118.6291.3312.7411.4387.1013.0925.2348.2344.3533.4387h.5063v-5.6992h-.5063c-.056.1484-.1594.3376-.3361.5097-.2865.2796-.6032.357-.7454.3935-.209.0516-.3878.0516-.5106.0452-1.4348.0108-2.8696.0107-4.3151.015v-4.4497c0-.2796,0-.5398.0108-.7893h4.927c1.144,0,1.7623.2602,1.9411.8774l.0926.3527h.5321l1.256-5.0561c-.0259,0-.0711.0107-.1271.0107-1.8592.1677-3.2725.142-3.7744.1334v.0108h-.0043v-.0043l-.0043-.0086Z" fill="#1d58a4" fill-rule="evenodd"/>
  <path d="M120.4365,5.1384v.5248c1.0729.3054,1.2366,1.4065,1.2366,3.9464v12.1684c0,2.5377-.1637,3.6389-1.2366,3.9464v.5291h6.8788v-.5291c-1.0729-.3054-1.2366-1.4065-1.2366-3.9464v-12.1684c0-2.5377.1637-3.6389,1.2366-3.9464v-.5248h-6.8788Z" fill="#1d58a4" fill-rule="evenodd"/>
  <path d="M119.1546,19.3499l-.0302.1183-1.521,6.1314c-.1487.1075-1.3982.8667-5.6078.8667-2.9407,0-5.6422-1.0796-7.5984-3.0582-1.9605-1.9786-3.0441-4.7249-3.0441-7.7379s1.0879-5.7293,3.0527-7.6863c1.9561-1.942,4.6512-3.0066,7.6027-3.0066,1.312,0,2.15.1484,2.7576.2645.8725.157,1.2301.1936,2.1134-.3054l.433.1419,1.6244,6.6325.0302.1226-.3878.2151c-.1271-.1226-.2499-.2452-.3727-.3613-.3727-.3527-.7411-.6732-1.1073-.9528-1.4908-1.1785-2.9709-1.7893-4.7482-1.7893-3.8714,0-6.6785,2.8603-6.6785,6.7895,0,.0925,0,.1828.0043.2753.1896,3.7163,2.9364,6.3766,6.6699,6.3766,1.5942,0,2.9816-.4387,4.2742-1.2947.6269-.4129,1.2366-.9226,1.8333-1.5291.1163-.1183.2348-.2387.3576-.3678l.3425.157v-.0022Z" fill="#1d58a4"/>
  <path d="M170.1372,19.3499l-.0302.1183-1.521,6.1314c-.1487.1075-1.3982.8667-5.6078.8667-2.9407,0-5.6422-1.0796-7.5984-3.0582-1.9605-1.9786-3.0441-4.7249-3.0441-7.7379s1.0879-5.7293,3.0549-7.6863c1.9561-1.942,4.6512-3.0066,7.6027-3.0066,1.312,0,2.15.1484,2.7576.2645.8725.157,1.2301.1936,2.1134-.3054l.4352.1419,1.6244,6.6325.0302.1226-.3878.2151c-.1271-.1226-.2499-.2452-.3727-.3613-.3727-.3527-.7411-.6732-1.1073-.9528-1.4908-1.1785-2.973-1.7893-4.7482-1.7893-3.8714,0-6.6785,2.8603-6.6785,6.7895,0,.0925,0,.1828.0043.2753.1896,3.7163,2.9364,6.3766,6.6699,6.3766,1.5921,0,2.9816-.4387,4.2742-1.2947.6291-.4129,1.2366-.9226,1.8333-1.5291.1163-.1183.2348-.2387.3576-.3678l.3425.157h-.0043v-.0022Z" fill="#1d58a4"/>
  <path d="M100.4808,21.7005l-6.295-16.5577h-5.862v.6108l.2348.0624c.0754.0172.1853.0495.3145.1011.0237.0108.0431.0194.0539.0215.1422.0559.2801.1419.3835.2495.2348.2602.3468.6473.0711,1.4947-.1745.5291-5.1984,14.0178-5.1984,14.0178-.4955,1.3205-1.103,3.17-2.0014,3.7356-.1077.0667-.2154.1226-.3318.1634l-.3059.1226v.5291h6.6936v-.5291s-.4653-.0925-.6528-.2495c-.3986-.3376-.5321-.9484.0366-2.5549l.7906-2.37h7.0469c.1745.4387.3533,1.142.7002,2.1915.224.6215.5321,1.428.5213,2.0388,0,.3871-.2499.7291-.6118.871l-.1745.071v.5291h7.0469v-.5291c-.0862-.0258-.224-.071-.3684-.1634-.4395-.2602-.6377-.6688-.7562-.9076-.6635-1.3764-1.2194-2.6818-1.3378-2.9614v.0108h.0043l-.0021.0021ZM89.5583,17.225l2.3849-6.4841,2.3741,6.4841h-4.7589Z" fill="#1d58a4" fill-rule="evenodd"/>
  <path d="M144.3562,5.1384v.5248c1.0729.3054,1.2366,1.4065,1.2366,3.9464v12.1684c0,2.5377-.1637,3.6389-1.2366,3.9464v.5291h6.8788v-.5291c-1.0729-.3054-1.2366-1.4065-1.2366-3.9464v-12.1684c0-2.5377.1637-3.6389,1.2366-3.9464v-.5248h-6.8788Z" fill="#1d58a4" fill-rule="evenodd"/>
</svg>